HIERARCHY
ROOT Hips
{
	OFFSET	0.00	0.00	0.00
	CHANNELS 6 Xposition Yposition Zposition Zrotation Xrotation Yrotation
	JOINT LeftUpLeg
	{
		OFFSET	 0.126116	-0.014019	-0.065224
		CHANNELS 3 Zrotation Xrotation Yrotation
		JOINT LeftLeg
		{
			OFFSET	 0.000000	 0.000000	 0.569914
			CHANNELS 3 Zrotation Xrotation Yrotation
			JOINT LeftFoot
			{
				OFFSET	 0.000000	 0.000000	 0.544423
				CHANNELS 3 Zrotation Xrotation Yrotation
				JOINT LeftToeBase
				{
					OFFSET	 0.000000	 0.000000	 0.207117
					CHANNELS 3 Zrotation Xrotation Yrotation
					End Site
					{
						OFFSET	 0.000000	 0.000000	 0.207117
					}
				}
			}
		}
	}
	JOINT RightUpLeg
	{
		OFFSET	-0.124023	-0.008373	-0.065224
		CHANNELS 3 Zrotation Xrotation Yrotation
		JOINT RightLeg
		{
			OFFSET	 0.000000	 0.000000	 0.570047
			CHANNELS 3 Zrotation Xrotation Yrotation
			JOINT RightFoot
			{
				OFFSET	 0.000000	 0.000000	 0.544354
				CHANNELS 3 Zrotation Xrotation Yrotation
				JOINT RightToeBase
				{
					OFFSET	 0.000000	 0.000000	 0.207540
					CHANNELS 3 Zrotation Xrotation Yrotation
					End Site
					{
						OFFSET	 0.000000	 0.000000	 0.207540
					}
				}
			}
		}
	}
	JOINT Spine
	{
		OFFSET	 0.000184	-0.007763	 0.117403
		CHANNELS 3 Zrotation Xrotation Yrotation
		JOINT Spine1
		{
			OFFSET	 0.000000	 0.000000	 0.137269
			CHANNELS 3 Zrotation Xrotation Yrotation
			JOINT Spine2
			{
				OFFSET	 0.000000	 0.000000	 0.156879
				CHANNELS 3 Zrotation Xrotation Yrotation
				JOINT LeftShoulder
				{
					OFFSET	 0.080501	-0.002496	 0.160144
					CHANNELS 3 Zrotation Xrotation Yrotation
					JOINT LeftArm
					{
						OFFSET	 0.000000	 0.000000	 0.164363
						CHANNELS 3 Zrotation Xrotation Yrotation
						JOINT LeftForeArm
						{
							OFFSET	 0.000000	 0.000000	 0.364576
							CHANNELS 3 Zrotation Xrotation Yrotation
							JOINT LeftHand
							{
								OFFSET	 0.000000	 0.000000	 0.360812
								CHANNELS 3 Zrotation Xrotation Yrotation
								JOINT LeftHandIndex1
								{
									OFFSET	 0.000000	 0.000000	 0.086006
									CHANNELS 3 Zrotation Xrotation Yrotation
									JOINT LeftHandIndex2
									{
										OFFSET	 0.000000	 0.000000	 0.047236
										CHANNELS 3 Zrotation Xrotation Yrotation
										JOINT LeftHandIndex3
										{
											OFFSET	-0.004284	-0.000551	 0.038166
											CHANNELS 3 Zrotation Xrotation Yrotation
											End Site
											{
												OFFSET	-0.004284	-0.000551	 0.038166
											}
										}
									}
								}
							}
						}
					}
				}
				JOINT Neck
				{
					OFFSET	 0.000000	 0.000000	 0.176489
					CHANNELS 3 Zrotation Xrotation Yrotation
					JOINT Head
					{
						OFFSET	 0.000000	-0.001747	 0.077940
						CHANNELS 3 Zrotation Xrotation Yrotation
						End Site
						{
							OFFSET	 0.000000	-0.001747	 0.077940
						}
					}
				}
				JOINT RightShoulder
				{
					OFFSET	-0.080363	 0.000306	 0.159706
					CHANNELS 3 Zrotation Xrotation Yrotation
					JOINT RightArm
					{
						OFFSET	 0.000000	 0.000000	 0.164196
						CHANNELS 3 Zrotation Xrotation Yrotation
						JOINT RightForeArm
						{
							OFFSET	 0.000000	 0.000000	 0.365611
							CHANNELS 3 Zrotation Xrotation Yrotation
							JOINT RightHand
							{
								OFFSET	 0.000000	 0.000000	 0.360648
								CHANNELS 3 Zrotation Xrotation Yrotation
								JOINT RightHandIndex1
								{
									OFFSET	 0.000000	 0.000000	 0.069977
									CHANNELS 3 Zrotation Xrotation Yrotation
									JOINT RightHandIndex2
									{
										OFFSET	 0.000000	 0.000000	 0.052305
										CHANNELS 3 Zrotation Xrotation Yrotation
										JOINT RightHandIndex3
										{
											OFFSET	 0.009002	-0.000782	 0.042196
											CHANNELS 3 Zrotation Xrotation Yrotation
											End Site
											{
												OFFSET	 0.009002	-0.000782	 0.042196
											}
										}
									}
								}
							}
						}
					}
				}
			}
		}
	}
}
MOTION
Frames:    8
Frame Time: 0.03333334
-1.674517	-10.594720	 0.574857	-21.205530	 0.416764	 0.139885	 4.120843	-1.740984	 179.845900	 3.148375	-11.594550	 1.749876	 4.354801	 71.406390	 1.230586	-2.385833	 28.452760	 0.000004	-4.121233	-2.153062	-179.879800	-3.140183	-11.963990	-1.790658	-4.386759	 71.428380	-1.219510	 2.384659	 28.388700	-0.000001	-5.805869	 2.874628	 0.043653	-9.662351	-1.440912	-0.761588	-11.597770	-1.712535	-0.942509	-96.855580	 86.735590	-170.910900	 12.091080	 1.915868	-6.709816	-4.245936	-0.921662	-0.251010	-18.105980	-23.744420	-4.725588	-3.812334	 37.924440	-2.927599	-2.450526	 36.184240	 0.754587	-1.378229	 35.397820	-2.634230	-0.000002	-3.783157	-0.089647	-2.871718	 0.963181	 0.024143	 104.097500	 88.275240	 160.879200	-12.297070	 2.928358	 8.184118	 4.452806	-0.477591	 0.392406	 19.666500	-24.697670	 9.494017	 6.437017	 35.671460	-0.771858	 2.830251	 35.756010	-7.813440	-2.350882	 35.473990	 5.254307
-1.670031	-10.581920	 0.576598	-21.397870	 8.040812	 1.722185	 4.532630	-22.108660	 174.173600	-1.673543	-40.133400	-0.210786	 0.115904	 84.672630	-0.602879	-2.385770	 28.466920	-0.000302	-2.469939	-22.994300	-178.758400	-0.122423	-40.996720	 0.007338	-0.260534	 85.590870	 0.513413	 2.407687	 17.408180	-0.224101	-6.316583	 8.976703	 0.008567	-9.814765	 6.825383	-2.038530	-11.447210	 4.099145	-0.349269	-115.672500	 89.398020	-153.551200	 56.057780	 59.856190	-78.166140	-3.667615	-4.368983	-20.889250	 4.163390	-25.629990	-5.921932	-3.812334	 37.924440	-2.927599	-2.450526	 36.184240	 0.754587	-1.378229	 35.397820	-2.634230	 0.456800	 2.633423	-0.632666	-2.384623	 7.000415	 0.424686	 94.719820	 86.906550	 171.577500	-53.482490	 70.193430	 71.745180	-3.188398	-12.975290	 25.876170	-19.767190	-26.372320	 10.698490	 6.437017	 35.671460	-0.771858	 2.830251	 35.756010	-7.813440	-2.350882	 35.473990	 5.254307
-1.669024	-10.581080	 0.575154	-21.429300	 8.041956	 1.811898	 4.500257	-22.498060	 174.095000	-1.747569	-40.807660	-0.294615	 0.083967	 84.889370	-0.653467	-2.385433	 28.543060	-0.001948	-2.440466	-23.338890	-178.768900	-0.079375	-41.529010	 0.066286	-0.518236	 85.774410	 0.839086	 2.407672	 17.797340	-0.216490	-6.483485	 9.120601	-0.056257	-9.806238	 6.784554	-2.079839	-11.448630	 4.024802	-0.356775	-115.452700	 89.385470	-153.737100	 55.708270	 59.003220	-77.812020	-3.754659	-4.107513	-21.520960	 3.250788	-25.788260	-5.952558	-3.812334	 37.924440	-2.927599	-2.450526	 36.184240	 0.754587	-1.378229	 35.397820	-2.634230	 0.440926	 2.474684	-0.585038	-2.380793	 6.977085	 0.330745	 94.724510	 86.890460	 171.544900	-53.268580	 69.570340	 71.864710	-3.145037	-12.921070	 26.369040	-19.320350	-26.530250	 10.732390	 6.437017	 35.671460	-0.771858	 2.830251	 35.756010	-7.813440	-2.350882	 35.473990	 5.254307
-1.667455	-10.579550	 0.572705	-21.497570	 8.045448	 1.835979	 4.537947	-23.136190	 174.046700	-1.814926	-41.659160	-0.331786	 0.299475	 85.142750	-0.894897	-2.385135	 28.609700	-0.003394	-2.417395	-23.820360	-178.714500	-0.054554	-42.264130	 0.118673	-0.816941	 85.984290	 1.190682	 2.407620	 18.096540	-0.210635	-6.750946	 9.320682	-0.064766	-9.789048	 6.719831	-2.103047	-11.458990	 3.921251	-0.367505	-114.787500	 89.354110	-154.336300	 55.117580	 58.100370	-77.413260	-3.769507	-3.905319	-22.368200	 2.493920	-26.053750	-6.001675	-3.812334	 37.924440	-2.927599	-2.450526	 36.184240	 0.754587	-1.378229	 35.397820	-2.634230	 0.417374	 2.225667	-0.566167	-2.396787	 6.986853	 0.287333	 94.750620	 86.877320	 171.480100	-52.787410	 68.797000	 71.806690	-3.085382	-12.938680	 27.171440	-18.817860	-26.798850	 10.792100	 6.437017	 35.671460	-0.771858	 2.830251	 35.756010	-7.813440	-2.350882	 35.473990	 5.254307
-1.665347	-10.576980	 0.569094	-21.607290	 8.109893	 1.855510	 4.649033	-23.934830	 174.011800	-1.918281	-42.848420	-0.355678	 0.569048	 85.481610	-1.165115	-2.384864	 28.669510	-0.004684	-2.394028	-24.631120	-178.636100	-0.070343	-43.356320	 0.153899	-1.204192	 86.260260	 1.601751	 2.407495	 18.507780	-0.202564	-7.184387	 9.620876	-0.056505	-9.774829	 6.595598	-2.126216	-11.470820	 3.752251	-0.384879	-113.797100	 89.304790	-155.231500	 54.137290	 57.305730	-76.989350	-3.483086	-3.986536	-23.617450	 2.415167	-26.471680	-6.074537	-3.812334	 37.924440	-2.927599	-2.450526	 36.184240	 0.754587	-1.378229	 35.397820	-2.634230	 0.386023	 1.890925	-0.545681	-2.419291	 6.971880	 0.327307	 94.796110	 86.851970	 171.362700	-52.013960	 67.830350	 71.732180	-2.908625	-13.016660	 28.367560	-18.218810	-27.234750	 10.872090	 6.437017	 35.671460	-0.771858	 2.830251	 35.756010	-7.813440	-2.350882	 35.473990	 5.254307
-1.663310	-10.574070	 0.565534	-21.711130	 8.208047	 1.848299	 4.743075	-24.745210	 173.993800	-2.015117	-43.976230	-0.381796	 0.802651	 85.797100	-1.401854	-2.384434	 28.764640	-0.006752	-2.365485	-25.532340	-178.561700	-0.112043	-44.431240	 0.171963	-1.563267	 86.515460	 1.963564	 2.407276	 18.980630	-0.193259	-7.626059	 9.909852	-0.027514	-9.763967	 6.450704	-2.138848	-11.457390	 3.574168	-0.402307	-113.015600	 89.261920	-155.929200	 53.227200	 56.704360	-76.751910	-3.678483	-3.955956	-24.924810	 2.066574	-26.883670	-6.148104	-3.812334	 37.924440	-2.927599	-2.450526	 36.184240	 0.754587	-1.378229	 35.397820	-2.634230	 0.376973	 1.584947	-0.549842	-2.417118	 6.915077	 0.415896	 94.835870	 86.814940	 171.235700	-51.307210	 67.031110	 71.845520	-2.632430	-13.100730	 29.479700	-17.719150	-27.646550	 10.967640	 6.437017	 35.671460	-0.771858	 2.830251	 35.756010	-7.813440	-2.350882	 35.473990	 5.254307
-1.660440	-10.569580	 0.560726	-21.857490	 8.425393	 1.761120	 4.759935	-25.973630	 174.040200	-2.191361	-45.508960	-0.512172	 0.825477	 86.224780	-1.516477	-2.383728	 28.915600	-0.010035	-2.264246	-26.844020	-178.480400	-0.144474	-45.926540	 0.250097	-1.725108	 86.860890	 2.173595	 2.406796	 19.685920	-0.179329	-8.223976	 10.328710	 0.069929	-9.738203	 6.217556	-2.132095	-11.407220	 3.295847	-0.428343	-112.351400	 89.207720	-156.462300	 52.037190	 56.052030	-76.485790	-4.257893	-3.824404	-26.814410	 1.421734	-27.442780	-6.249912	-3.812334	 37.924440	-2.927599	-2.450526	 36.184240	 0.754587	-1.378229	 35.397820	-2.634230	 0.391861	 1.126368	-0.572150	-2.385675	 6.801124	 0.565172	 94.877880	 86.745030	 171.050300	-50.337310	 66.131590	 72.114070	-2.104728	-13.197380	 30.911380	-17.109640	-28.202580	 11.098840	 6.437017	 35.671460	-0.771858	 2.830251	 35.756010	-7.813440	-2.350882	 35.473990	 5.254307
-1.656619	-10.563230	 0.554493	-22.067560	 8.745370	 1.674888	 4.813716	-27.683940	 174.101200	-2.453001	-47.529560	-0.690018	 1.305679	 86.788740	-2.117262	-2.382683	 29.139680	-0.014916	-2.188136	-28.578690	-178.419300	-0.134332	-47.932040	 0.354396	-2.472168	 87.316060	 2.985083	 2.406093	 20.436430	-0.164429	-8.962144	 10.977940	 0.186744	-9.668399	 5.870785	-2.135025	-11.313110	 2.869493	-0.467010	-112.035600	 89.145220	-156.574300	 50.568680	 55.380000	-76.180180	-4.950728	-3.691880	-29.227700	 0.794521	-28.163590	-6.383948	-3.812334	 37.924440	-2.927599	-2.450526	 36.184240	 0.754587	-1.378229	 35.397820	-2.634230	 0.444707	 0.504957	-0.635488	-2.334057	 6.548550	 0.836812	 94.899700	 86.624900	 170.812400	-48.987840	 65.131880	 72.315560	-1.356857	-13.272640	 32.650650	-16.378840	-28.929340	 11.257040	 6.437017	 35.671460	-0.771858	 2.830251	 35.756010	-7.813440	-2.350882	 35.473990	 5.254307
